<svg width="26" height="26" viewBox="0 0 26 26" fill="none" xmlns="http://www.w3.org/2000/svg">
<g filter="url(#filter0_d_1156_930)">
<path d="M18.5857 11.0005H4.99991C4.44762 11.0005 3.99991 11.4482 3.99991 12.0005C3.99991 12.5528 4.44762 13.0005 4.99991 13.0005H18.5857L15.3431 16.2432C14.9525 16.6337 14.9525 17.2669 15.3431 17.6574C15.7336 18.0479 16.3667 18.0479 16.7573 17.6574L20.9999 13.4147C21.781 12.6337 21.781 11.3674 20.9999 10.5863L16.7573 6.34367C16.3667 5.95315 15.7336 5.95315 15.3431 6.34367C14.9525 6.7342 14.9525 7.36736 15.3431 7.75789L18.5857 11.0005Z" fill="white"/>
</g>
<defs>
<filter id="filter0_d_1156_930" x="-3" y="0" width="32" height="32" filterUnits="userSpaceOnUse" color-interpolation-filters="sRGB">
<feFlood flood-opacity="0" result="BackgroundImageFix"/>
<feColorMatrix in="SourceAlpha" type="matrix" values="0 0 0 0 0 0 0 0 0 0 0 0 0 0 0 0 0 0 127 0" result="hardAlpha"/>
<feOffset dy="4"/>
<feGaussianBlur stdDeviation="2"/>
<feComposite in2="hardAlpha" operator="out"/>
<feColorMatrix type="matrix" values="0 0 0 0 0 0 0 0 0 0 0 0 0 0 0 0 0 0 0.25 0"/>
<feBlend mode="normal" in2="BackgroundImageFix" result="effect1_dropShadow_1156_930"/>
<feBlend mode="normal" in="SourceGraphic" in2="effect1_dropShadow_1156_930" result="shape"/>
</filter>
</defs>
</svg>
