<svg width="27" height="24" viewBox="0 0 27 24" fill="none" xmlns="http://www.w3.org/2000/svg">
<g filter="url(#filter0_d_1156_1154)">
<path d="M22.8006 2.49851C22.115 2.80255 21.3774 3.00819 20.6039 3.10003C21.3937 2.62686 21.9998 1.87817 22.2858 0.984589C21.5468 1.42296 20.728 1.74098 19.8572 1.91239C19.1596 1.16941 18.1656 0.705078 17.065 0.705078C14.9532 0.705078 13.2405 2.4178 13.2405 4.52953C13.2405 4.82929 13.2745 5.12106 13.3401 5.40115C10.1616 5.24171 7.3434 3.71923 5.45699 1.40471C5.12785 1.96944 4.93904 2.62686 4.93904 3.32763C4.93904 4.65417 5.61471 5.82526 6.64035 6.51092C6.01373 6.49124 5.42362 6.31925 4.90824 6.03204C4.90795 6.0483 4.90795 6.06456 4.90795 6.08053C4.90795 7.93357 6.22679 9.47915 7.97601 9.83025C7.65543 9.9181 7.31688 9.96459 6.96863 9.96459C6.72163 9.96459 6.48234 9.94092 6.24903 9.89642C6.73561 11.4155 8.14771 12.5213 9.82164 12.5523C8.5125 13.5783 6.86367 14.1895 5.07138 14.1895C4.76335 14.1895 4.45817 14.1715 4.15955 14.1359C5.85116 15.2214 7.86192 15.8543 10.0216 15.8543C17.0561 15.8543 20.9031 10.0268 20.9031 4.97247C20.9031 4.80676 20.8994 4.64162 20.892 4.4779C21.6398 3.93885 22.2881 3.26546 22.8006 2.49851Z" fill="#F1F2F2"/>
</g>
<defs>
<filter id="filter0_d_1156_1154" x="0.159546" y="0.705078" width="26.6411" height="23.1484" filterUnits="userSpaceOnUse" color-interpolation-filters="sRGB">
<feFlood flood-opacity="0" result="BackgroundImageFix"/>
<feColorMatrix in="SourceAlpha" type="matrix" values="0 0 0 0 0 0 0 0 0 0 0 0 0 0 0 0 0 0 127 0" result="hardAlpha"/>
<feOffset dy="4"/>
<feGaussianBlur stdDeviation="2"/>
<feComposite in2="hardAlpha" operator="out"/>
<feColorMatrix type="matrix" values="0 0 0 0 0 0 0 0 0 0 0 0 0 0 0 0 0 0 0.25 0"/>
<feBlend mode="normal" in2="BackgroundImageFix" result="effect1_dropShadow_1156_1154"/>
<feBlend mode="normal" in="SourceGraphic" in2="effect1_dropShadow_1156_1154" result="shape"/>
</filter>
</defs>
</svg>
